<svg width="1571" height="569" viewBox="0 0 1571 569" fill="none" xmlns="http://www.w3.org/2000/svg">
<g style="mix-blend-mode:overlay">
<path d="M660.176 539.241C695.311 558.513 781.273 565.522 852.178 554.899" stroke="white" stroke-miterlimit="10"/>
<path d="M1039.83 246.396C1041.81 397.024 929.532 536.194 789.051 557.241" stroke="white" stroke-miterlimit="10"/>
<path d="M852.178 554.899C923.082 544.276 952.079 520.041 916.943 500.771" stroke="white" stroke-miterlimit="10"/>
<path d="M1032.17 422.424C1034.12 411.192 1026.12 399.789 1006.91 389.254" stroke="white" stroke-miterlimit="10"/>
<path d="M659.41 215.374C661.395 366.002 719.439 519.061 789.052 557.242" stroke="white" stroke-miterlimit="10"/>
<path d="M916.946 500.77C881.81 481.499 795.848 474.489 724.943 485.112" stroke="white" stroke-miterlimit="10"/>
<path d="M1006.91 389.255C946.802 356.286 799.737 344.293 678.434 362.468" stroke="white" stroke-miterlimit="10"/>
<path d="M789.051 557.242C875.217 519.797 943.463 367.335 941.478 216.707" stroke="white" stroke-miterlimit="10"/>
<path d="M789.051 557.241C799.846 513.649 806.988 356.205 805.003 205.577" stroke="white" stroke-miterlimit="10"/>
<path d="M724.943 485.112C654.039 495.735 625.042 519.97 660.178 539.241" stroke="white" stroke-miterlimit="10"/>
<path d="M678.435 362.467C581.15 377.043 529.98 406.595 544.537 434.734" stroke="white" stroke-miterlimit="10"/>
<path d="M789.053 557.241C659.959 534.296 555.609 392.992 548.234 244.048" stroke="white" stroke-miterlimit="10"/>
<path d="M781.865 11.7658C922.346 -9.28243 1037.84 95.7686 1039.83 246.397" stroke="white" stroke-miterlimit="10"/>
<path d="M1025.29 132.369C1021.36 126.075 1014.09 119.872 1003.28 113.943" stroke="white" stroke-miterlimit="10"/>
<path d="M781.864 11.7657C712.251 -26.4154 657.425 64.7454 659.41 215.374" stroke="white" stroke-miterlimit="10"/>
<path d="M1003.28 113.942C943.173 80.9737 796.108 68.9806 674.805 87.155" stroke="white" stroke-miterlimit="10"/>
<path d="M941.48 216.706C939.495 66.0782 868.031 -25.6797 781.865 11.7653" stroke="white" stroke-miterlimit="10"/>
<path d="M805.005 205.577C803.02 54.9488 792.66 -31.8256 781.865 11.7654" stroke="white" stroke-miterlimit="10"/>
<path d="M674.808 87.1562C606.842 97.3393 561.384 114.832 545.121 134.047" stroke="white" stroke-miterlimit="10"/>
<path d="M548.235 244.048C546.25 93.4203 650.853 -10.5792 781.865 11.7656" stroke="white" stroke-miterlimit="10"/>
<path d="M649.12 533.593C689.516 555.749 737.609 564.95 789.052 557.242M649.12 533.593C641.362 529.146 630.975 523.21 623.771 517.913C617.696 513.446 609.598 507.48 603.765 502.703C598.979 498.783 592.736 493.363 588.403 488.947C583.265 483.71 576.388 476.743 571.528 471.247C567.292 466.457 561.942 459.805 558.106 454.69C553.761 448.894 548.314 440.906 544.449 434.78C540.968 429.261 536.517 421.763 533.638 415.908C530.443 409.411 526.197 400.734 523.38 394.065C520.793 387.941 517.78 379.596 515.637 373.303C511.735 361.839 507.765 346.103 505.809 334.152C503.578 320.52 501.644 302.122 501.51 288.31C501.438 280.727 501.751 270.608 502.287 263.043C502.771 256.21 504.061 247.155 504.907 240.357C505.824 232.988 508.046 223.307 509.801 216.092C511.379 209.599 513.898 201.043 516.006 194.703C518.338 187.686 521.909 178.482 524.817 171.683C527.391 165.665 531.423 157.913 534.265 152.017C537.527 145.249 542.895 136.749 546.938 130.416C550.386 125.015 555.52 118.173 559.212 112.936C563.747 106.507 570.734 98.6319 576.022 92.8057C580.189 88.2125 585.958 82.2682 590.529 78.0763C596.945 72.1932 605.812 64.6902 612.61 59.2536C617.125 55.6422 623.467 51.2378 628.279 48.0334C633.08 44.8361 639.693 40.8992 644.636 37.9252C653.007 32.8891 664.725 27.0687 673.775 23.3903C679.672 20.994 687.565 17.8551 693.59 15.8067C699.729 13.7194 708.021 11.2453 714.296 9.61313C720.181 8.08258 728.091 6.26391 734.078 5.19648C736.886 4.69518 740.631 4.01812 743.456 3.61982C747.789 3.00831 753.583 2.30823 757.934 1.83141C758.259 1.7954 766.025 0.954126 777.22 0.613441C779.067 0.557261 781.532 0.495324 783.38 0.502527C787.077 0.516212 792.006 0.572387 795.7 0.681867C799.775 0.802872 809.2 1.37692 815.583 2.09862C819.805 2.57592 824.884 3.25584 830.82 4.13841C833.266 4.50214 836.501 5.14029 838.935 5.56957C842.022 6.11409 846.103 7.02379 849.157 7.72388C852.089 8.39589 855.973 9.39633 858.886 10.1447C863.169 11.246 868.832 12.9112 873.019 14.3308C878.918 16.3303 886.729 19.1602 892.514 21.4651C896.975 23.2419 902.841 25.8262 907.157 27.9316C913.394 30.974 921.599 35.2675 927.626 38.706C932.651 41.5726 939.233 45.6198 943.974 48.9359C948.78 52.2981 955.21 56.763 959.808 60.4046C965.594 64.9877 973.156 71.3051 978.56 76.3318C983.153 80.6037 989.116 86.4818 993.365 91.0958C998.306 96.4617 1004.71 103.803 1009.17 109.575C1016.62 119.218 1024.82 130.494 1034.3 147.56C1040.69 159.079 1047.58 175.31 1052.46 187.548C1055.17 194.359 1057.87 203.786 1059.79 210.863C1061.56 217.394 1063.27 226.266 1064.75 232.869C1066.39 240.157 1067.59 250.084 1068.17 257.531C1068.83 266.002 1069.76 277.333 1069.43 285.822C1069.16 292.755 1069.01 302.015 1068.39 308.926C1067.73 316.412 1066.7 326.413 1065.16 333.769C1063.78 340.369 1062.12 349.218 1060.4 355.739C1058.5 362.969 1055.6 372.522 1053.1 379.566C1050.89 385.778 1047.66 393.965 1044.94 399.97C1041.8 406.907 1037.39 416.078 1033.57 422.669C1027.14 433.777 1017.53 447.986 1009.96 458.352C1005.3 464.733 998.07 472.446 992.87 478.395C988.8 483.051 982.855 488.801 978.253 492.932C971.716 498.798 962.621 506.189 955.77 511.685C950.437 515.962 942.857 521.075 937.017 524.626C928.631 529.727 917.17 536.074 908.405 540.491C902.199 543.618 893.622 547.174 887.138 549.676C881.055 552.024 872.816 554.836 866.551 556.644C852.85 560.597 847.508 561.716 836.776 563.825C831.447 564.873 820.826 566.453 812.96 567.18C807.375 567.695 802.986 568.021 799.915 568.148C790.724 568.527 790.196 568.524 781.385 568.483C780.184 568.477 769.254 568.386 755.331 566.909C747.08 566.034 740.162 564.881 740.093 564.87C737.423 564.422 733.865 563.809 731.209 563.29C728.364 562.733 724.59 561.888 721.755 561.284C718.104 560.506 713.29 559.223 709.692 558.227C706.129 557.241 701.42 555.784 697.892 554.677C691.95 552.813 684.113 550.014 678.397 547.543C669.467 543.682 657.782 538.022 649.119 533.592L649.12 533.593Z" stroke="white" stroke-miterlimit="10"/>
<path d="M648.071 533.265C639.574 528.616 631.376 523.504 623.77 517.912C617.696 513.445 609.598 507.479 603.765 502.702C598.979 498.782 592.736 493.362 588.403 488.946C583.265 483.709 576.388 476.742 571.528 471.246C567.292 466.456 561.942 459.804 558.106 454.689C553.761 448.893 548.314 440.905 544.449 434.779C540.968 429.26 536.517 421.762 533.638 415.907C530.443 409.41 526.197 400.733 523.38 394.064C520.793 387.94 517.78 379.595 515.637 373.302C511.735 361.838 507.765 346.102 505.809 334.151C503.578 320.519 501.644 302.121 501.51 288.309C501.438 280.726 501.751 270.607 502.287 263.042C502.771 256.209 504.061 247.154 504.907 240.356C505.824 232.987 508.046 223.306 509.801 216.091C511.379 209.598 513.898 201.042 516.006 194.702C518.338 187.685 521.909 178.481 524.817 171.682C527.391 165.664 531.423 157.912 534.265 152.016C537.527 145.248 542.895 136.748 546.938 130.415C550.386 125.014 555.52 118.172 559.212 112.935C563.747 106.506 570.734 98.6309 576.022 92.8047C580.189 88.2116 585.958 82.2672 590.529 78.0753C596.945 72.1922 605.812 64.6892 612.61 59.2527C617.125 55.6413 623.467 51.2369 628.279 48.0324C633.08 44.8352 639.693 40.8982 644.636 37.9242C653.007 32.8882 664.725 27.0677 673.775 23.3893C679.672 20.993 687.565 17.8541 693.59 15.8057C699.729 13.7184 708.021 11.2443 714.296 9.61216C720.181 8.0816 728.091 6.26293 734.078 5.1955C736.886 4.6942 740.631 4.01715 743.456 3.61884C747.789 3.00734 753.583 2.30725 757.934 1.83044C758.259 1.79442 766.025 0.953149 777.22 0.612465C779.067 0.556284 781.532 0.494348 783.38 0.50155C787.077 0.515235 792.006 0.571411 795.7 0.680891C799.775 0.801895 809.2 1.37594 815.583 2.09764C819.805 2.57494 824.884 3.25487 830.82 4.13743C833.265 4.50116 836.501 5.13932 838.935 5.56859C842.022 6.11311 846.103 7.02281 849.157 7.72291C852.088 8.39491 855.972 9.39535 858.886 10.1437C863.169 11.245 868.831 12.9102 873.019 14.3299C878.918 16.3293 886.729 19.1592 892.514 21.4641C896.975 23.241 902.84 25.8253 907.157 27.9306C913.394 30.973 921.599 35.2665 927.626 38.705C932.651 41.5717 939.233 45.6188 943.974 48.9349C948.779 52.2971 955.21 56.762 959.808 60.4037C965.594 64.9867 973.156 71.3041 978.56 76.3308C983.153 80.6027 989.116 86.4808 993.365 91.0948C998.306 96.4607 1004.71 103.802 1009.17 109.574C1016.62 119.217 1024.82 130.493 1034.3 147.559C1040.69 159.078 1047.58 175.309 1052.46 187.547C1055.17 194.358 1057.87 203.785 1059.79 210.862C1061.56 217.393 1063.27 226.265 1064.75 232.868C1066.38 240.156 1067.59 250.084 1068.17 257.53C1068.83 266.001 1069.76 277.332 1069.43 285.822C1069.16 292.754 1069.01 302.014 1068.39 308.925C1067.73 316.411 1066.7 326.412 1065.16 333.768C1063.78 340.368 1062.12 349.217 1060.4 355.738C1058.5 362.968 1055.6 372.521 1053.1 379.565C1050.89 385.777 1047.66 393.964 1044.94 399.969C1041.8 406.906 1037.39 416.077 1033.57 422.668C1027.14 433.776 1017.53 447.985 1009.96 458.351C1005.3 464.732 998.07 472.445 992.87 478.394C988.8 483.05 982.855 488.8 978.253 492.931C971.715 498.797 962.621 506.188 955.77 511.684C950.437 515.961 942.857 521.074 937.017 524.625C928.631 529.726 917.17 536.073 908.405 540.49C902.199 543.617 893.622 547.173 887.138 549.675C881.055 552.023 872.816 554.835 866.551 556.643C852.85 560.596 847.508 561.715 836.776 563.824C831.447 564.872 820.826 566.453 812.96 567.179C807.375 567.694 802.986 568.02 799.915 568.147C790.724 568.526 790.196 568.523 781.385 568.482C780.184 568.476 769.254 568.385 755.331 566.908C747.08 566.033 740.162 564.88 740.093 564.869C737.423 564.421 733.865 563.808 731.209 563.289C728.363 562.732 724.59 561.887 721.755 561.283C718.104 560.505 713.29 559.222 709.692 558.226C706.129 557.24 701.42 555.783 697.892 554.676C692.922 553.117 688 551.384 683.149 549.487C671.388 544.89 659.46 539.495 648.071 533.264L648.071 533.265Z" stroke="white" stroke-miterlimit="10"/>
</g>
<g style="mix-blend-mode:overlay">
<path d="M1570.5 521.501C1570.5 426.979 1219.04 205.501 785.5 205.501C351.956 205.501 0.5 426.979 0.5 521.501" stroke="white"/>
</g>
</svg>
